<?xml version="1.0" encoding="UTF-8" standalone="no"?>
<!DOCTYPE svg PUBLIC "-//W3C//DTD SVG 1.1//EN" "http://www.w3.org/Graphics/SVG/1.1/DTD/svg11.dtd">
<svg width="100%" height="100%" viewBox="0 0 1080 1080" version="1.1" xmlns="http://www.w3.org/2000/svg" xmlns:xlink="http://www.w3.org/1999/xlink" xml:space="preserve" xmlns:serif="http://www.serif.com/" style="fill-rule:evenodd;clip-rule:evenodd;stroke-linejoin:round;stroke-miterlimit:2;">
    <g transform="matrix(2.06416,0,0,2.06416,-670.11,153.062)">
        <g transform="matrix(1,0,0,1,-0.196987,0)">
            <path d="M592.143,212.474C589.695,213.201 587.103,213.591 584.42,213.591C569.452,213.591 557.299,201.439 557.299,186.47C557.299,171.502 569.452,159.349 584.42,159.349C587.103,159.349 589.695,159.739 592.143,160.466C580.931,163.795 572.744,174.184 572.744,186.47C572.744,198.756 580.931,209.145 592.143,212.474Z" style="fill:rgb(23,123,74);"/>
        </g>
        <g transform="matrix(0.431845,0,0,0.431845,289.252,-51.4636)">
            <text x="463.563px" y="602.741px" style="font-family:'Montserrat-Light', 'Montserrat';font-weight:300;font-size:126.347px;fill:rgb(23,123,74);">Y<tspan x="528px " y="602.741px ">A</tspan></text>
            <text x="689.346px" y="602.741px" style="font-family:'Montserrat-Light', 'Montserrat';font-weight:300;font-size:126.347px;fill:rgb(23,123,74);">Y</text>
        </g>
        <g transform="matrix(1,0,0,1,-4.28724,-1.08095)">
            <text x="629.972px" y="208.827px" style="font-family:'Montserrat-Black', 'Montserrat';font-weight:900;font-size:51.474px;fill:rgb(23,123,74);">M<tspan x="675.063px 705.69px 750.781px 785.784px " y="208.827px 208.827px 208.827px 208.827px ">EMBY</tspan></text>
        </g>
        <text x="516.308px" y="234.361px" style="font-family:'Montserrat-Light', 'Montserrat';font-weight:300;font-size:20.815px;fill:rgb(23,123,74);">#<tspan x="533.043px 550.402px 566.7px 580.584px 600.399px 617.759px 637.075px 656.89px 671.939px 691.755px 709.031px 717.544px 734.592px 749.141px 765.439px 783.152px " y="234.361px 234.361px 234.361px 234.361px 234.361px 234.361px 234.361px 234.361px 234.361px 234.361px 234.361px 234.361px 234.361px 234.361px 234.361px 234.361px ">RETORNOSOCIALEBY</tspan></text>
        <g transform="matrix(0.324403,0,0,0.324403,315.613,29.6724)">
            <g transform="matrix(1.0536,0.216126,-0.216126,1.0536,87.3907,-94.7418)">
                <path d="M318.482,319.717L406.945,345.692L467.321,415.37L480.442,506.628L442.142,590.494L364.581,640.339L272.384,640.339L194.823,590.494L156.523,506.628L169.644,415.37L230.02,345.692L318.482,319.717Z" style="fill:rgb(15,117,62);"/>
            </g>
            <g transform="matrix(0.485032,0,0,0.485032,84.6708,221.425)">
                <g transform="matrix(2.56738,0,0,2.56738,400.279,344.934)">
                    <path d="M0,26.935C0,26.935 0.15,-1.893 64.737,-24.914C83.061,-31.445 126.352,-41.241 141.315,-43.002C141.315,-43.002 147.024,-12.218 163.487,3.836C163.487,3.836 85.089,-7.82 64.328,-5.893C56.755,-5.188 47.047,-5.922 34.375,-0.541C34.375,-0.541 -20.979,20.577 20.677,66.166L19.006,69.937C19.006,69.937 -10.127,58.715 0,26.935" style="fill:none;fill-rule:nonzero;stroke:rgb(15,117,62);stroke-width:6.45px;"/>
                    <path d="M0,26.935C0,26.935 0.15,-1.893 64.737,-24.914C83.061,-31.445 126.352,-41.241 141.315,-43.002C141.315,-43.002 147.024,-12.218 163.487,3.836C163.487,3.836 85.089,-7.82 64.328,-5.893C56.755,-5.188 47.047,-5.922 34.375,-0.541C34.375,-0.541 -20.979,20.577 20.677,66.166L19.006,69.937C19.006,69.937 -10.127,58.715 0,26.935" style="fill:white;fill-rule:nonzero;"/>
                </g>
                <g transform="matrix(2.56738,0,0,2.56738,338.415,210.582)">
                    <path d="M0,137.167C0,137.167 -23.773,123.904 -16.333,54.5C-14.223,34.813 -6.667,-8.833 -1.667,-23.333C-1.667,-23.333 25.833,-15.333 47.833,-23.333C47.833,-23.333 5.742,43.777 -1.667,63.667C-4.369,70.924 -9.333,79.5 -10,93.5C-10,93.5 -15.104,153.593 45.115,135.547L47.833,138.746C47.833,138.746 24.667,160.5 0,137.167" style="fill:none;fill-rule:nonzero;stroke:rgb(15,117,62);stroke-width:6.45px;"/>
                    <path d="M0,137.167C0,137.167 -23.773,123.904 -16.333,54.5C-14.223,34.813 -6.667,-8.833 -1.667,-23.333C-1.667,-23.333 25.833,-15.333 47.833,-23.333C47.833,-23.333 5.742,43.777 -1.667,63.667C-4.369,70.924 -9.333,79.5 -10,93.5C-10,93.5 -15.104,153.593 45.115,135.547L47.833,138.746C47.833,138.746 24.667,160.5 0,137.167" style="fill:white;fill-rule:nonzero;"/>
                </g>
                <g transform="matrix(2.56738,0,0,2.56738,343.591,209.917)">
                    <path d="M0,103.445C0,103.445 -12.954,79.503 30.542,24.911C42.881,9.424 72.663,-23.364 84.658,-32.922C84.658,-32.922 103.581,-11.423 126.439,-6.378C126.439,-6.378 54.925,27.696 38.006,40.512C31.833,45.188 23.044,49.766 14.975,61.225C14.975,61.225 -19.536,109.808 40.97,126.866L40.911,130.121C40.911,130.121 8.308,136.367 0,103.445" style="fill:none;fill-rule:nonzero;stroke:rgb(15,117,62);stroke-width:6.45px;"/>
                    <path d="M0,103.445C0,103.445 -12.954,79.503 30.542,24.911C42.881,9.424 72.663,-23.364 84.658,-32.922C84.658,-32.922 103.581,-11.423 126.439,-6.378C126.439,-6.378 54.925,27.696 38.006,40.512C31.833,45.188 23.044,49.766 14.975,61.225C14.975,61.225 -19.536,109.808 40.97,126.866L40.911,130.121C40.911,130.121 8.308,136.367 0,103.445" style="fill:white;fill-rule:nonzero;"/>
                </g>
                <g transform="matrix(2.56738,0,0,2.56738,478.604,498.265)">
                    <path d="M0,-41.988C0,-41.988 15.006,-66.602 82.208,-52.988C101.273,-49.127 143.409,-35.176 157.136,-28.962C157.136,-28.962 145.414,2.366 151.229,24.614C151.229,24.614 90.818,-27.844 72.041,-36.907C65.191,-40.213 57.255,-45.852 43.623,-47.781C43.623,-47.781 -14.688,-58.261 -2.536,2.286L-5.913,4.654C-5.913,4.654 -25.075,-19.993 0,-41.988" style="fill:none;fill-rule:nonzero;stroke:rgb(15,117,62);stroke-width:6.45px;"/>
                    <path d="M0,-41.988C0,-41.988 15.006,-66.602 82.208,-52.988C101.273,-49.127 143.409,-35.176 157.136,-28.962C157.136,-28.962 145.414,2.366 151.229,24.614C151.229,24.614 90.818,-27.844 72.041,-36.907C65.191,-40.213 57.255,-45.852 43.623,-47.781C43.623,-47.781 -14.688,-58.261 -2.536,2.286L-5.913,4.654C-5.913,4.654 -25.075,-19.993 0,-41.988" style="fill:white;fill-rule:nonzero;"/>
                </g>
                <g transform="matrix(2.56738,0,0,2.56738,561.655,703.857)">
                    <path d="M0,-114.468C0,-114.468 26.196,-126.502 74.331,-77.671C87.987,-63.818 115.144,-30.787 123.058,-17.965C123.058,-17.965 100.319,0.001 92.715,21.702C92.715,21.702 67.427,-52.005 56.915,-70.011C53.081,-76.579 49.647,-85.69 39.419,-94.906C39.419,-94.906 -3.093,-136.17 -26.835,-79.162L-30.958,-79.085C-30.958,-79.085 -33.085,-110.232 0,-114.468" style="fill:none;fill-rule:nonzero;stroke:rgb(15,117,62);stroke-width:6.45px;"/>
                    <path d="M0,-114.468C0,-114.468 26.196,-126.502 74.331,-77.671C87.987,-63.818 115.144,-30.787 123.058,-17.965C123.058,-17.965 100.319,0.001 92.715,21.702C92.715,21.702 67.427,-52.005 56.915,-70.011C53.081,-76.579 49.647,-85.69 39.419,-94.906C39.419,-94.906 -3.093,-136.17 -26.835,-79.162L-30.958,-79.085C-30.958,-79.085 -33.085,-110.232 0,-114.468" style="fill:white;fill-rule:nonzero;"/>
                </g>
                <g transform="matrix(-2.40053,0.910438,-0.910438,-2.40053,639.294,692.36)">
                    <path d="M0,26.935C0,26.935 0.15,-1.893 64.737,-24.914C83.061,-31.445 126.352,-41.241 141.315,-43.002C141.315,-43.002 147.024,-12.218 163.487,3.836C163.487,3.836 85.089,-7.82 64.328,-5.893C56.755,-5.188 47.047,-5.922 34.375,-0.541C34.375,-0.541 -20.979,20.577 20.677,66.166L19.006,69.937C19.006,69.937 -10.127,58.715 0,26.935" style="fill:none;fill-rule:nonzero;stroke:rgb(15,117,62);stroke-width:6.45px;"/>
                    <path d="M0,26.935C0,26.935 0.15,-1.893 64.737,-24.914C83.061,-31.445 126.352,-41.241 141.315,-43.002C141.315,-43.002 147.024,-12.218 163.487,3.836C163.487,3.836 85.089,-7.82 64.328,-5.893C56.755,-5.188 47.047,-5.922 34.375,-0.541C34.375,-0.541 -20.979,20.577 20.677,66.166L19.006,69.937C19.006,69.937 -10.127,58.715 0,26.935" style="fill:white;fill-rule:nonzero;"/>
                </g>
                <g transform="matrix(-2.40053,0.910438,-0.910438,-2.40053,744.782,796.043)">
                    <path d="M0,137.167C0,137.167 -23.773,123.904 -16.333,54.5C-14.223,34.813 -6.667,-8.833 -1.667,-23.333C-1.667,-23.333 25.833,-15.333 47.833,-23.333C47.833,-23.333 5.742,43.777 -1.667,63.667C-4.369,70.924 -9.333,79.5 -10,93.5C-10,93.5 -15.104,153.593 45.115,135.547L47.833,138.746C47.833,138.746 24.667,160.5 0,137.167" style="fill:none;fill-rule:nonzero;stroke:rgb(15,117,62);stroke-width:6.45px;"/>
                    <path d="M0,137.167C0,137.167 -23.773,123.904 -16.333,54.5C-14.223,34.813 -6.667,-8.833 -1.667,-23.333C-1.667,-23.333 25.833,-15.333 47.833,-23.333C47.833,-23.333 5.742,43.777 -1.667,63.667C-4.369,70.924 -9.333,79.5 -10,93.5C-10,93.5 -15.104,153.593 45.115,135.547L47.833,138.746C47.833,138.746 24.667,160.5 0,137.167" style="fill:white;fill-rule:nonzero;"/>
                </g>
                <g transform="matrix(-2.40053,0.910438,-0.910438,-2.40053,740.178,798.5)">
                    <path d="M0,103.445C0,103.445 -12.954,79.503 30.542,24.911C42.881,9.424 72.663,-23.364 84.658,-32.922C84.658,-32.922 103.581,-11.423 126.439,-6.378C126.439,-6.378 54.925,27.696 38.006,40.512C31.833,45.188 23.044,49.766 14.975,61.225C14.975,61.225 -19.536,109.808 40.97,126.866L40.911,130.121C40.911,130.121 8.308,136.367 0,103.445" style="fill:none;fill-rule:nonzero;stroke:rgb(15,117,62);stroke-width:6.45px;"/>
                    <path d="M0,103.445C0,103.445 -12.954,79.503 30.542,24.911C42.881,9.424 72.663,-23.364 84.658,-32.922C84.658,-32.922 103.581,-11.423 126.439,-6.378C126.439,-6.378 54.925,27.696 38.006,40.512C31.833,45.188 23.044,49.766 14.975,61.225C14.975,61.225 -19.536,109.808 40.97,126.866L40.911,130.121C40.911,130.121 8.308,136.367 0,103.445" style="fill:white;fill-rule:nonzero;"/>
                </g>
                <g transform="matrix(-2.40053,0.910438,-0.910438,-2.40053,511.686,576.77)">
                    <path d="M0,-41.988C0,-41.988 15.006,-66.602 82.208,-52.988C101.273,-49.127 143.409,-35.176 157.136,-28.962C157.136,-28.962 145.414,2.366 151.229,24.614C151.229,24.614 90.818,-27.844 72.041,-36.907C65.191,-40.213 57.255,-45.852 43.623,-47.781C43.623,-47.781 -14.688,-58.261 -2.536,2.286L-5.913,4.654C-5.913,4.654 -25.075,-19.993 0,-41.988" style="fill:none;fill-rule:nonzero;stroke:rgb(15,117,62);stroke-width:6.45px;"/>
                    <path d="M0,-41.988C0,-41.988 15.006,-66.602 82.208,-52.988C101.273,-49.127 143.409,-35.176 157.136,-28.962C157.136,-28.962 145.414,2.366 151.229,24.614C151.229,24.614 90.818,-27.844 72.041,-36.907C65.191,-40.213 57.255,-45.852 43.623,-47.781C43.623,-47.781 -14.688,-58.261 -2.536,2.286L-5.913,4.654C-5.913,4.654 -25.075,-19.993 0,-41.988" style="fill:white;fill-rule:nonzero;"/>
                </g>
                <g transform="matrix(-2.40053,0.910438,-0.910438,-2.40053,361.125,413.99)">
                    <path d="M0,-114.468C0,-114.468 26.196,-126.502 74.331,-77.671C87.987,-63.818 115.144,-30.787 123.058,-17.965C123.058,-17.965 100.319,0.001 92.715,21.702C92.715,21.702 67.427,-52.005 56.915,-70.011C53.081,-76.579 49.647,-85.69 39.419,-94.906C39.419,-94.906 -3.093,-136.17 -26.835,-79.162L-30.958,-79.085C-30.958,-79.085 -33.085,-110.232 0,-114.468" style="fill:none;fill-rule:nonzero;stroke:rgb(15,117,62);stroke-width:6.45px;"/>
                    <path d="M0,-114.468C0,-114.468 26.196,-126.502 74.331,-77.671C87.987,-63.818 115.144,-30.787 123.058,-17.965C123.058,-17.965 100.319,0.001 92.715,21.702C92.715,21.702 67.427,-52.005 56.915,-70.011C53.081,-76.579 49.647,-85.69 39.419,-94.906C39.419,-94.906 -3.093,-136.17 -26.835,-79.162L-30.958,-79.085C-30.958,-79.085 -33.085,-110.232 0,-114.468" style="fill:white;fill-rule:nonzero;"/>
                </g>
                <g transform="matrix(-2.495,-0.605308,0.605308,-2.495,452.734,352.576)">
                    <path d="M0,-114.468C0,-114.468 26.196,-126.502 74.331,-77.671C87.987,-63.818 115.144,-30.787 123.058,-17.965C123.058,-17.965 100.319,0.001 92.715,21.702C92.715,21.702 67.427,-52.005 56.915,-70.011C53.081,-76.579 49.647,-85.69 39.419,-94.906C39.419,-94.906 -3.093,-136.17 -26.835,-79.162L-30.958,-79.085C-30.958,-79.085 -33.085,-110.232 0,-114.468" style="fill:none;fill-rule:nonzero;stroke:rgb(15,117,62);stroke-width:6.45px;"/>
                    <path d="M0,-114.468C0,-114.468 26.196,-126.502 74.331,-77.671C87.987,-63.818 115.144,-30.787 123.058,-17.965C123.058,-17.965 100.319,0.001 92.715,21.702C92.715,21.702 67.427,-52.005 56.915,-70.011C53.081,-76.579 49.647,-85.69 39.419,-94.906C39.419,-94.906 -3.093,-136.17 -26.835,-79.162L-30.958,-79.085C-30.958,-79.085 -33.085,-110.232 0,-114.468" style="fill:white;fill-rule:nonzero;"/>
                </g>
                <g transform="matrix(0,-2.56738,-2.56738,0,485.612,496.442)">
                    <path d="M-16.574,-16.574C-25.727,-16.574 -33.148,-9.154 -33.148,0.001C-33.148,9.154 -25.727,16.574 -16.574,16.574C-7.42,16.574 0.001,9.154 0.001,0.001C0.001,-9.154 -7.42,-16.574 -16.574,-16.574" style="fill:rgb(15,117,62);fill-rule:nonzero;stroke:rgb(15,117,62);stroke-width:6.45px;"/>
                </g>
            </g>
        </g>
    </g>
</svg>
